<svg width="20" height="20" viewBox="0 0 20 20" fill="none" xmlns="http://www.w3.org/2000/svg">
<path d="M15 9H13V11H15V9Z" fill="#9B9FAA"/>
<path d="M11 9H8.99998V11H11V9Z" fill="#9B9FAA"/>
<path d="M7.00004 9H5.00002V11H7.00004V9Z" fill="#9B9FAA"/>
<path d="M17 2.00001H16V0H14V2.00001H5.99998V0H3.99997V2.00001H2.99998C1.88998 2.00001 1.01 2.90001 1.01 4.00003L0.999969 18C0.999969 19.1 1.88998 20 2.99998 20H17C18.1 20 19 19.1 19 18V3.99998C19 2.90001 18.1 2.00001 17 2.00001ZM17 18H2.99998V6.99998H17V18Z" fill="#9B9FAA"/>
</svg>
